<svg width="30" height="42" viewBox="0 0 30 42" fill="none" xmlns="http://www.w3.org/2000/svg">
<g clip-path="url(#clip0_1_7)">
<path d="M14.9 41.9L3.3 24.4C1.3 21.9 0.200001 18.6 0.200001 15.2C0.200001 7.1 6.9 0.5 15.1 0.5C23.3 0.5 29.9 7.2 29.9 15.4C29.8 18.8 28.7 22 26.7 24.5L14.9 41.9Z" fill="#374167"/>
<path d="M15.1 1.5C7.4 1.5 1.2 7.6 1.2 15.2C1.2 18.4 2.2 21.4 4.1 23.8L14.9 40.1L25.9 23.9C27.7 21.6 28.8 18.6 28.9 15.4C28.9 7.7 22.7 1.5 15.1 1.5Z" fill="white"/>
<path d="M26.3 24.2L14.9 41L3.7 24.1C1.8 21.7 0.700001 18.6 0.700001 15.2C0.700001 12.3 1.6 9.59999 3.1 7.39999L27.1 7.49999C28.6 9.79999 29.4 12.4 29.4 15.3C29.3 18.7 28.2 21.8 26.3 24.2Z" fill="#374167"/>
</g>
<defs>
<clipPath id="clip0_1_7">
<rect width="30" height="42" fill="white"/>
</clipPath>
</defs>
</svg>
