<svg width="30" height="42" viewBox="0 0 30 42" fill="none" xmlns="http://www.w3.org/2000/svg">
<g clip-path="url(#clip0_1_17)">
<path d="M15 41.9L3.30001 24.5C1.30001 21.9 0.100006 18.6 0.100006 15.3C0.200006 7.1 6.90001 0.5 15 0.5C23.2 0.5 29.8 7.1 29.8 15.3C29.8 18.7 28.7 22 26.7 24.5L15 41.9Z" fill="#374167"/>
<path d="M15 1.5C7.40001 1.5 1.20001 7.7 1.10001 15.3C1.10001 18.4 2.20001 21.4 4.10001 23.9L15 40.1L25.9 23.9C27.8 21.5 28.8 18.5 28.8 15.3C28.8 7.7 22.6 1.5 15 1.5Z" fill="white"/>
<path d="M20.6 32.6L15 41L9.39999 32.6H20.6Z" fill="#374167"/>
</g>
<defs>
<clipPath id="clip0_1_17">
<rect width="30" height="42" fill="white"/>
</clipPath>
</defs>
</svg>
