<svg width="30" height="42" viewBox="0 0 30 42" fill="none" xmlns="http://www.w3.org/2000/svg">
<g clip-path="url(#clip0_1_37)">
<path d="M15 41.9L3.3 24.5C1.3 21.9 0.0999985 18.6 0.0999985 15.3C0.199998 7.1 6.9 0.5 15 0.5C23.2 0.5 29.8 7.1 29.8 15.3C29.8 18.7 28.7 22 26.7 24.5L15 41.9Z" fill="#374167"/>
<path d="M15 1.5C7.4 1.5 1.2 7.7 1.1 15.3C1.1 18.4 2.2 21.4 4.1 23.9L15 40.1L25.9 23.9C27.8 21.5 28.8 18.5 28.8 15.3C28.8 7.7 22.6 1.5 15 1.5Z" fill="white"/>
<path d="M26.3 24.2L15 41L3.7 24.2C1.8 21.8 0.599998 18.7 0.599998 15.3C0.599998 10.3 3.2 5.8 7.2 3.3H22.8C26.7 5.9 29.4 10.3 29.4 15.3C29.3 18.7 28.2 21.8 26.3 24.2Z" fill="#374167"/>
</g>
<defs>
<clipPath id="clip0_1_37">
<rect width="30" height="42" fill="white"/>
</clipPath>
</defs>
</svg>
