<svg width="30" height="42" viewBox="0 0 30 42" fill="none" xmlns="http://www.w3.org/2000/svg">
<path d="M15.2 40.4L3.99999 23.6C1.99999 21.2 0.899994 18.1 0.899994 14.8C0.899994 6.9 7.29999 0.5 15.2 0.5C23.1 0.5 29.5 6.9 29.5 14.8C29.6 18 28.5 21.1 26.5 23.6L15.2 40.4Z" fill="#374167"/>
<path d="M15.2 1.5C7.89999 1.5 1.89999 7.5 1.89999 14.8C1.89999 17.8 2.89999 20.7 4.79999 23L15.2 38.6L25.7 23C27.6 20.7 28.6 17.8 28.5 14.8C28.5 7.5 22.5 1.5 15.2 1.5Z" fill="white"/>
<path d="M23.4 27.1L15.2 39.3L7.10001 27.1H23.4Z" fill="#374167"/>
</svg>
