<svg width="30" height="42" viewBox="0 0 30 42" fill="none"
  xmlns="http://www.w3.org/2000/svg">
  <path d="M5.3125 24.8271L4.89258 25.0977L4.38965 24.3135C4.16279 24.0036 3.94729 23.6835 3.74414 23.3545L4.16992 23.0918V23.0908C3.77646 22.4535 3.42982 21.7809 3.13574 21.083V21.084L2.6748 21.2783C2.37307 20.5623 2.12498 19.82 1.93555 19.0625L2.4209 18.9414V18.9404C2.23813 18.2094 2.11146 17.4637 2.04785 16.7129V16.7139L1.5498 16.7559C1.51682 16.3667 1.50001 15.976 1.5 15.585V15.5791L1.51562 15.0371C1.52418 14.8572 1.5359 14.6781 1.55078 14.5L2.04883 14.54C2.10761 13.8373 2.21724 13.1497 2.37305 12.4814L1.88672 12.3682C2.05204 11.6591 2.26802 10.9707 2.53027 10.3076L2.99512 10.4912C3.25325 9.83862 3.55786 9.2115 3.9043 8.61426L3.47168 8.36328C3.83555 7.73598 4.24385 7.13999 4.69238 6.58105L5.08301 6.89453C5.52037 6.34953 5.99681 5.84069 6.50781 5.37305V5.37207L6.1709 5.00391C6.70469 4.51545 7.27522 4.0701 7.87695 3.67285L8.15234 4.08984C8.73304 3.7065 9.34357 3.36961 9.97949 3.08496L9.77441 2.62891C10.4318 2.33462 11.1157 2.09388 11.8203 1.91113L11.9463 2.39453C12.6133 2.22156 13.2998 2.10321 14.001 2.04395L13.959 1.5459C14.3171 1.51563 14.6791 1.5 15.0439 1.5C15.4087 1.5 15.7704 1.51535 16.1279 1.54492L16.0869 2.04297H16.0859C16.7881 2.10102 17.474 2.21785 18.1396 2.3877H18.1406L18.2646 1.90332C18.971 2.08364 19.6556 2.32109 20.3125 2.6123L20.1094 3.06934C20.7469 3.35191 21.3576 3.68704 21.9375 4.06836H21.9385L22.2129 3.65039C22.8161 4.04704 23.3871 4.49283 23.9199 4.98145L23.582 5.34961H23.5811C24.0918 5.81796 24.5662 6.32846 25.001 6.875L25.3936 6.56348C25.8398 7.12448 26.2451 7.72245 26.6045 8.35254L26.1699 8.60059H26.1689C26.5106 9.19961 26.8098 9.82855 27.0615 10.4834H27.0625L27.5293 10.3037C27.785 10.9688 27.9939 11.6598 28.1514 12.3711L27.6631 12.4795H27.6621C27.8102 13.1487 27.9114 13.8372 27.9619 14.541H27.9629L28.4619 14.5059C28.4875 14.8619 28.5 15.2221 28.5 15.585L28.4893 16.168C28.482 16.3622 28.4714 16.556 28.457 16.749L27.958 16.7119L27.957 16.7109C27.9007 17.4672 27.7868 18.2129 27.6201 18.9395L27.6221 18.9404L28.1094 19.0527C27.9336 19.8185 27.6995 20.5643 27.4102 21.2793L26.9473 21.0918L26.9453 21.0908C26.66 21.7957 26.3194 22.4687 25.9258 23.0996L25.9268 23.1006L26.3516 23.3652C26.1489 23.6901 25.9309 24.004 25.7012 24.3066L25.1953 25.0977L24.7744 24.8271L23.749 26.4238L23.75 26.4248L24.1709 26.6943L23.1465 28.292L22.7256 28.0215L21.7012 29.6191L22.1221 29.8887L21.0977 31.4863L20.6768 31.2158L19.6523 32.8125L19.6533 32.8135L20.0742 33.083L19.0498 34.6797L18.6289 34.4102L18.6279 34.4092L17.6045 36.0068L18.0254 36.2773L17.001 37.874L16.5801 37.6045L15.5557 39.2012L15.9766 39.4717L15.4648 40.2695L15.0439 40.9258L14.623 40.2695L14.1104 39.4717L14.5312 39.2012V39.2002L13.5068 37.6045L13.0869 37.874L12.0625 36.2773L12.4834 36.0068H12.4824L11.459 34.4092V34.4102L11.0381 34.6797L10.0137 33.083L10.4346 32.8135V32.8125L9.41016 31.2148V31.2158L8.98926 31.4863L7.96484 29.8887L8.38574 29.6191V29.6182L7.36133 28.0215L6.94141 28.292L5.91699 26.6943L6.33789 26.4248V26.4238L5.3125 24.8271Z" fill="#E7ECFF" stroke="#9FA3FF" stroke-dasharray="2 2"/>
</svg>
